<svg width="196" height="23" viewBox="0 0 196 23" fill="none" xmlns="http://www.w3.org/2000/svg">
<path d="M78.5262 5.3577C79.8177 5.3577 80.968 5.62003 81.977 6.1447C83.0061 6.64919 83.8133 7.4362 84.3985 8.50572C84.9837 9.55506 85.2763 10.9071 85.2763 12.5618V21.8848H80.5543V13.2883C80.5543 11.9766 80.2617 11.008 79.6765 10.3824C79.1114 9.75686 78.3043 9.44408 77.2549 9.44408C76.5083 9.44408 75.8323 9.60552 75.2269 9.92839C74.6417 10.2311 74.1775 10.7053 73.8345 11.3511C73.5116 11.9968 73.3502 12.8242 73.3502 13.8332V21.8848H68.6281V5.59985H73.1383V10.11L72.2907 8.74788C72.8759 7.65818 73.7134 6.82072 74.8031 6.23551C75.8928 5.6503 77.1338 5.3577 78.5262 5.3577Z" fill="#367CFE"/>
<path d="M55.6808 21.8848V5.59985H60.191V10.2008L59.5553 8.86896C60.0396 7.71872 60.8165 6.85099 61.886 6.26578C62.9556 5.66039 64.2572 5.3577 65.7908 5.3577V9.7165C65.589 9.69632 65.4074 9.68623 65.246 9.68623C65.0845 9.66605 64.913 9.65596 64.7314 9.65596C63.4399 9.65596 62.3905 10.0293 61.5834 10.7759C60.7963 11.5024 60.4028 12.6426 60.4028 14.1964V21.8848H55.6808Z" fill="#367CFE"/>
<path d="M46.9878 21.8848V18.7065L46.6851 18.0103V12.3197C46.6851 11.3107 46.3723 10.5237 45.7467 9.95866C45.1413 9.39363 44.203 9.11111 42.9317 9.11111C42.0639 9.11111 41.2063 9.25237 40.3588 9.53489C39.5314 9.79722 38.8251 10.1605 38.2399 10.6246L36.5448 7.32521C37.4327 6.69964 38.5022 6.21533 39.7534 5.87228C41.0045 5.52922 42.2758 5.3577 43.5673 5.3577C46.0494 5.3577 47.9766 5.94291 49.3488 7.11333C50.721 8.28375 51.4071 10.11 51.4071 12.5921V21.8848H46.9878ZM42.0236 22.127C40.7523 22.127 39.6626 21.9151 38.7545 21.4913C37.8464 21.0474 37.1502 20.4521 36.6659 19.7054C36.1816 18.9588 35.9394 18.1213 35.9394 17.1931C35.9394 16.2244 36.1715 15.3769 36.6356 14.6504C37.1199 13.924 37.8767 13.3589 38.9058 12.9553C39.935 12.5316 41.2769 12.3197 42.9317 12.3197H47.2602V15.0742H43.4463C42.3364 15.0742 41.5695 15.2558 41.1458 15.6191C40.7422 15.9823 40.5404 16.4363 40.5404 16.9812C40.5404 17.5866 40.7725 18.0709 41.2366 18.4341C41.7209 18.7772 42.3767 18.9487 43.2041 18.9487C43.9911 18.9487 44.6974 18.7671 45.323 18.4038C45.9485 18.0204 46.4026 17.4655 46.6851 16.739L47.4116 18.9184C47.0685 19.9678 46.4429 20.7649 45.5348 21.3097C44.6268 21.8546 43.4563 22.127 42.0236 22.127Z" fill="#367CFE"/>
<path d="M26.4284 22.127C24.5719 22.127 22.9373 21.7638 21.5248 21.0373C20.1324 20.3108 19.0528 19.322 18.2859 18.0709C17.5191 16.7996 17.1357 15.3567 17.1357 13.7423C17.1357 12.1078 17.509 10.6649 18.2557 9.41381C19.0225 8.14249 20.0617 7.15369 21.3734 6.4474C22.6851 5.72093 24.1683 5.3577 25.823 5.3577C27.4172 5.3577 28.85 5.70075 30.1213 6.38686C31.4128 7.05279 32.4319 8.02141 33.1785 9.29273C33.9252 10.5439 34.2985 12.0473 34.2985 13.8029C34.2985 13.9845 34.2884 14.1964 34.2682 14.4385C34.248 14.6605 34.2279 14.8724 34.2077 15.0742H20.9799V12.3197H31.7256L29.9094 13.137C29.9094 12.2894 29.7379 11.5528 29.3948 10.9273C29.0518 10.3017 28.5776 9.8174 27.9722 9.47435C27.3668 9.11111 26.6605 8.92949 25.8533 8.92949C25.0461 8.92949 24.3297 9.11111 23.7042 9.47435C23.0988 9.8174 22.6246 10.3118 22.2815 10.9576C21.9384 11.5831 21.7669 12.3298 21.7669 13.1975V13.924C21.7669 14.8119 21.9586 15.5989 22.342 16.285C22.7456 16.9509 23.3006 17.4655 24.0069 17.8287C24.7333 18.1718 25.5809 18.3433 26.5495 18.3433C27.4172 18.3433 28.174 18.2121 28.8197 17.9498C29.4856 17.6875 30.091 17.294 30.6359 16.7693L33.1482 19.4935C32.4016 20.3411 31.4632 20.9969 30.3332 21.4611C29.2031 21.905 27.9015 22.127 26.4284 22.127Z" fill="#367CFE"/>
<path d="M0.500046 21.8848V0.696205H5.4037V17.8893H16.0283V21.8848H0.500046Z" fill="#367CFE"/>
<path d="M93.1753 22.1875V19.0092L101.348 11.2905C101.994 10.7053 102.468 10.1806 102.771 9.7165C103.073 9.25237 103.275 8.8286 103.376 8.44518C103.497 8.06177 103.558 7.70863 103.558 7.38575C103.558 6.53821 103.265 5.89246 102.68 5.44851C102.115 4.98437 101.277 4.75231 100.168 4.75231C99.2797 4.75231 98.4523 4.92383 97.6855 5.26689C96.9389 5.60994 96.3032 6.1447 95.7785 6.87117L92.2067 4.57069C93.0139 3.35991 94.144 2.40138 95.5969 1.69509C97.0498 0.988802 98.7248 0.635658 100.622 0.635658C102.196 0.635658 103.568 0.897994 104.738 1.42266C105.929 1.92716 106.847 2.64353 107.493 3.5718C108.159 4.50006 108.492 5.60994 108.492 6.90144C108.492 7.58755 108.401 8.27366 108.219 8.95977C108.058 9.6257 107.715 10.332 107.19 11.0786C106.686 11.8253 105.939 12.6627 104.95 13.591L98.1698 19.9779L97.2315 18.192H109.188V22.1875H93.1753Z" fill="#202020"/>
<path d="M187.63 22.7021C185.773 22.7021 184.139 22.3389 182.726 21.6124C181.334 20.886 180.254 19.8972 179.487 18.646C178.721 17.3747 178.337 15.9319 178.337 14.3175C178.337 12.6829 178.711 11.2401 179.457 9.98894C180.224 8.71762 181.263 7.72882 182.575 7.02253C183.887 6.29606 185.37 5.93283 187.025 5.93283C188.619 5.93283 190.052 6.27588 191.323 6.96199C192.614 7.62792 193.633 8.59655 194.38 9.86786C195.127 11.119 195.5 12.6224 195.5 14.378C195.5 14.5596 195.49 14.7715 195.47 15.0137C195.45 15.2357 195.429 15.4475 195.409 15.6493H182.181V12.8948H192.927L191.111 13.7121C191.111 12.8645 190.939 12.128 190.596 11.5024C190.253 10.8768 189.779 10.3925 189.174 10.0495C188.568 9.68625 187.862 9.50463 187.055 9.50463C186.248 9.50463 185.531 9.68625 184.906 10.0495C184.3 10.3925 183.826 10.8869 183.483 11.5327C183.14 12.1583 182.968 12.9049 182.968 13.7726V14.4991C182.968 15.387 183.16 16.174 183.544 16.8601C183.947 17.526 184.502 18.0406 185.208 18.4039C185.935 18.7469 186.782 18.9184 187.751 18.9184C188.619 18.9184 189.375 18.7873 190.021 18.5249C190.687 18.2626 191.293 17.8691 191.837 17.3444L194.35 20.0687C193.603 20.9162 192.665 21.5721 191.535 22.0362C190.405 22.4802 189.103 22.7021 187.63 22.7021Z" fill="#FFB74D"/>
<path d="M165.582 22.7021C164.049 22.7021 162.666 22.3591 161.435 21.673C160.204 20.9667 159.226 19.988 158.499 18.7368C157.793 17.4857 157.44 16.0126 157.44 14.3175C157.44 12.6022 157.793 11.119 158.499 9.86785C159.226 8.61671 160.204 7.64809 161.435 6.96198C162.666 6.27587 164.049 5.93282 165.582 5.93282C166.954 5.93282 168.155 6.23551 169.184 6.8409C170.213 7.44629 171.011 8.36447 171.576 9.59543C172.141 10.8264 172.423 12.4004 172.423 14.3175C172.423 16.2144 172.151 17.7884 171.606 19.0395C171.061 20.2705 170.274 21.1886 169.245 21.794C168.236 22.3994 167.015 22.7021 165.582 22.7021ZM166.399 18.8276C167.166 18.8276 167.862 18.646 168.488 18.2828C169.114 17.9195 169.608 17.405 169.971 16.739C170.355 16.0529 170.546 15.2457 170.546 14.3175C170.546 13.369 170.355 12.5618 169.971 11.8959C169.608 11.23 169.114 10.7154 168.488 10.3522C167.862 9.98893 167.166 9.80731 166.399 9.80731C165.612 9.80731 164.906 9.98893 164.281 10.3522C163.655 10.7154 163.151 11.23 162.767 11.8959C162.404 12.5618 162.222 13.369 162.222 14.3175C162.222 15.2457 162.404 16.0529 162.767 16.739C163.151 17.405 163.655 17.9195 164.281 18.2828C164.906 18.646 165.612 18.8276 166.399 18.8276ZM170.667 22.46V19.1303L170.758 14.2872L170.456 9.47435V0H175.178V22.46H170.667Z" fill="#FFB74D"/>
<path d="M146.504 22.7021C144.769 22.7021 143.225 22.3389 141.873 21.6124C140.541 20.886 139.482 19.8972 138.695 18.646C137.928 17.3747 137.544 15.9319 137.544 14.3175C137.544 12.6829 137.928 11.2401 138.695 9.98894C139.482 8.71762 140.541 7.72882 141.873 7.02253C143.225 6.29606 144.769 5.93283 146.504 5.93283C148.219 5.93283 149.753 6.29606 151.105 7.02253C152.457 7.72882 153.517 8.70753 154.283 9.95867C155.05 11.2098 155.434 12.6627 155.434 14.3175C155.434 15.9319 155.05 17.3747 154.283 18.646C153.517 19.8972 152.457 20.886 151.105 21.6124C149.753 22.3389 148.219 22.7021 146.504 22.7021ZM146.504 18.8276C147.291 18.8276 147.997 18.646 148.623 18.2828C149.249 17.9195 149.743 17.405 150.106 16.739C150.469 16.0529 150.651 15.2457 150.651 14.3175C150.651 13.369 150.469 12.5618 150.106 11.8959C149.743 11.23 149.249 10.7154 148.623 10.3522C147.997 9.98894 147.291 9.80733 146.504 9.80733C145.717 9.80733 145.011 9.98894 144.385 10.3522C143.76 10.7154 143.255 11.23 142.872 11.8959C142.509 12.5618 142.327 13.369 142.327 14.3175C142.327 15.2457 142.509 16.0529 142.872 16.739C143.255 17.405 143.76 17.9195 144.385 18.2828C145.011 18.646 145.717 18.8276 146.504 18.8276Z" fill="#FFB74D"/>
<path d="M127.59 22.8232C125.956 22.8232 124.432 22.5609 123.02 22.0362C121.627 21.4913 120.417 20.7245 119.387 19.7357C118.358 18.7469 117.551 17.5866 116.966 16.2547C116.401 14.9229 116.118 13.4598 116.118 11.8656C116.118 10.2714 116.401 8.80842 116.966 7.47657C117.551 6.14471 118.358 4.98438 119.387 3.99558C120.437 3.00677 121.658 2.25003 123.05 1.72536C124.442 1.18051 125.966 0.908089 127.621 0.908089C129.457 0.908089 131.112 1.23096 132.585 1.87671C134.078 2.50228 135.329 3.43055 136.338 4.66151L133.19 7.56738C132.464 6.74001 131.657 6.12453 130.769 5.72094C129.881 5.29716 128.912 5.08528 127.863 5.08528C126.874 5.08528 125.966 5.24671 125.139 5.56959C124.311 5.89246 123.595 6.35659 122.989 6.96199C122.384 7.56737 121.91 8.28375 121.567 9.11112C121.244 9.93849 121.082 10.8567 121.082 11.8656C121.082 12.8746 121.244 13.7928 121.567 14.6202C121.91 15.4475 122.384 16.1639 122.989 16.7693C123.595 17.3747 124.311 17.8388 125.139 18.1617C125.966 18.4846 126.874 18.646 127.863 18.646C128.912 18.646 129.881 18.4442 130.769 18.0406C131.657 17.6168 132.464 16.9812 133.19 16.1336L136.338 19.0395C135.329 20.2705 134.078 21.2088 132.585 21.8546C131.112 22.5003 129.447 22.8232 127.59 22.8232Z" fill="#FFB74D"/>
</svg>
